<?xml version="1.0" encoding="utf-8"?>
<!-- Generator: Adobe Illustrator 27.0.0, SVG Export Plug-In . SVG Version: 6.00 Build 0)  -->
<svg version="1.1" id="Ebene_1" xmlns="http://www.w3.org/2000/svg" xmlns:xlink="http://www.w3.org/1999/xlink" x="0px" y="0px"
	 viewBox="0 0 400 400" style="enable-background:new 0 0 400 400;" xml:space="preserve">
<style type="text/css">
	.st0{fill:#00B4D5;}
	.st1{fill:url(#SVGID_1_);}
	.st2{fill:url(#SVGID_00000092425343046608422830000017007985313045974442_);}
	.st3{fill:url(#SVGID_00000146461067881691813380000007388964230210585254_);}
	.st4{fill:url(#SVGID_00000054970427728060250480000001889271793012159902_);}
</style>
<g>
	<g>
		<path class="st0" d="M288,234.1c0,6.9-2.4,12.6-6,17.9c-7.6,11.3-16.7,15.4-32,15.4c-10.6,0-24.7,0-39.8,0
			c21.2,0,42.2-14.9,47.8-26c0,0,0.1-0.1,0.1-0.1c0.8-1.3,1.3-2.9,1.4-4.6c0-0.2,0-0.3,0-0.5c0-2.7-0.6-4.9-1.8-6.4
			c-1.2-1.6-3.3-3-6.4-4.4s-8-3-14.6-4.8c-10.4-2.9-18.1-6.9-23.1-12.2c-5-5.3-7.5-11.8-7.5-19.6c0-5.8,1.7-11.1,5.1-15.8
			c3.4-4.7,8.1-8.4,14.3-11c6.2-2.7,13.4-4,21.5-4c14.5,0,27,4.2,37.4,12.5L274,186.4c-8.7-5.5-17.3-8.2-25.7-8.2
			c-4.6,0-8.1,0.8-10.5,2.5c-2.5,1.7-3.7,4-3.7,6.8c0,2.1,0.5,3.8,1.7,5.3c1.1,1.4,3.2,2.8,6.2,4.1c3.1,1.3,7.6,2.9,13.7,4.7
			c10.9,3,19,7,24.4,12C285.4,218.6,288,225.4,288,234.1z"/>
		<path class="st0" d="M247.1,246.6c2.3,0,4.6-0.5,6.8-1.4c0.4-0.2,0.8-0.4,1.1-0.6c1.3-0.9,2.4-1.9,3.1-3.1
			c-5.6,11.1-26.6,26-47.8,26c-42,0-91.1,0-91.1,0V132.8h80.5l-3.1,20.9h-48.7v35.1h42.5v20.7h-42.5v37.2h58.8h27H247.1z"/>
		<linearGradient id="SVGID_1_" gradientUnits="userSpaceOnUse" x1="247.9288" y1="288.6037" x2="143.451" y2="184.1258">
			<stop  offset="0" style="stop-color:#393A3A"/>
			<stop  offset="0.2523" style="stop-color:#393A3A;stop-opacity:0.5205"/>
			<stop  offset="1" style="stop-color:#393A3A;stop-opacity:0"/>
		</linearGradient>
		<path class="st1" d="M247.1,246.6c2.3,0,4.6-0.5,6.8-1.4c0.4-0.2,0.8-0.4,1.1-0.6c1.3-0.9,2.4-1.9,3.1-3.1
			c-5.6,11.1-26.6,26-47.8,26c-42,0-91.1,0-91.1,0V132.8h80.5l-3.1,20.9h-48.7v35.1h42.5v20.7h-42.5v37.2h58.8h27H247.1z"/>
	</g>
	<g>
		<path class="st0" d="M373.9,287.4c0,4-1.1,7.8-3,11.1c-1.9,3.3-4.7,6.2-8.1,8.2l-88.5,51.2l-3.5,2l-59.5,34.4
			c-6.9,4-15.4,4-22.3,0l-88.2-50.8l-3.7-2.1l-59.7-34.4c-6.9-4-11.1-11.3-11.2-19.3l-0.1-94l0-4.8l-0.1-76.2c0-4,1.1-7.8,3-11.1
			c1.9-3.3,4.7-6.2,8.2-8.2l90.1-52.1l1.8-1.1l59.6-34.5c6.9-4,15.4-4,22.3,0l87,50.1l1,0.6l0.1,0.1l63.5,36.6
			c6.9,4,11.2,11.3,11.2,19.3l0.1,100.7l0,7.5l0,0L373.9,287.4z M341.1,284.3c2-2.1,3.1-5,3.1-8l-0.1-144.1l0-0.2l0-3.4l0-1.9l0-3.2
			c0-0.2,0-0.5,0-0.7l0-0.1c-0.1-1.2-0.3-2.3-0.7-3.3c-0.9-2.5-2.7-4.7-5.1-6.1L217.1,43.4l-6.3-3.7l-4.1-2.3l-0.8-0.5
			c-0.3-0.2-0.6-0.3-1-0.5c-0.5-0.2-1-0.4-1.5-0.6c-3.1-1-6.6-0.6-9.5,1.2L65.2,114.5l-0.6,0.3l-2.4,1.5c-0.4,0.2-0.8,0.5-1.1,0.8
			c-0.3,0.2-0.6,0.5-0.9,0.8c-2.3,2.2-3.7,5.3-3.7,8.5l-0.5,128.5l-0.1,15l0,5.9l0,0.8c0,1.1,0.1,2.1,0.4,3.1l0,0
			c0.8,3,2.8,5.6,5.5,7.2l106.5,61.4l0.1,0.1l20.4,11.8l5.4,3.1c0.2,0.1,0.4,0.2,0.6,0.3l0.7,0.4c3.4,1.4,7.3,1.2,10.5-0.7
			l119.6-69.2l5.8-3.3l5-2.9l2-1.1C339.4,285.9,340.3,285.1,341.1,284.3z"/>
		<g>
			
				<linearGradient id="SVGID_00000093886017729349730550000018370211747865132187_" gradientUnits="userSpaceOnUse" x1="161.7603" y1="29.2179" x2="32.7169" y2="291.1377" gradientTransform="matrix(0.9998 1.808157e-02 -1.808157e-02 0.9998 3.649 -3.5838)">
				<stop  offset="0" style="stop-color:#393A3A"/>
				<stop  offset="0.2523" style="stop-color:#393A3A;stop-opacity:0.5205"/>
				<stop  offset="1" style="stop-color:#393A3A;stop-opacity:0"/>
			</linearGradient>
			<path style="fill:url(#SVGID_00000093886017729349730550000018370211747865132187_);" d="M147.9,32.5c0,0-10.8,4.1-18.7,7.7
				l-1.8,1.1L37.2,93.3c-3.4,2-6.2,4.8-8.2,8.2c-1.9,3.3-3,7.2-3,11.1l0.1,76.2l0,4.8l0.1,94c0,8,4.3,15.3,11.2,19.3l59.7,34.4
				l3.7,2.1c-7.3-4.8-19.2-14.4-19.2-14.4c-14.1-13.1-22.9-30.6-25.3-49.5c0,0,0,0,0,0c-0.3-1-0.4-2-0.4-3.1l0-0.8
				c-0.2-2.7-0.3-5.5-0.2-8.3l0.3-12.6l0.5-128.5c0-3.3,1.4-6.3,3.7-8.5c0.3-0.3,0.6-0.5,0.9-0.8c0.3-0.3,0.7-0.5,1.1-0.8l2.4-1.5
				l0.6-0.3c0.2-0.1,0.4-0.3,0.7-0.4l11.9-7.2l5.5-3.3L193.9,37c2.9-1.7,6.3-2.1,9.5-1.2C185.9,28.3,166.3,27,147.9,32.5z"/>
			
				<linearGradient id="SVGID_00000147913469748726536510000016322949586504143235_" gradientUnits="userSpaceOnUse" x1="57.7152" y1="303.5774" x2="375.463" y2="303.5774" gradientTransform="matrix(0.9998 1.808157e-02 -1.808157e-02 0.9998 3.649 -3.5838)">
				<stop  offset="0" style="stop-color:#393A3A"/>
				<stop  offset="0.2523" style="stop-color:#393A3A;stop-opacity:0.5205"/>
				<stop  offset="1" style="stop-color:#393A3A;stop-opacity:0"/>
			</linearGradient>
			<path style="fill:url(#SVGID_00000147913469748726536510000016322949586504143235_);" d="M373.9,220.6L373.9,220.6l0-7.6l-0.4,0
				c-0.3,8.3-2.8,25.1-2.8,25.1c-4.2,18.5-14.7,34.7-29.5,46.1c-0.8,0.9-1.7,1.6-2.8,2.3l-2,1.1c-1.8,1.2-3.7,2.3-5.6,3.4l-5.2,2.9
				L206,363.1c-3.2,1.9-7.1,2.1-10.5,0.7c-0.2-0.1-0.4-0.2-0.6-0.3c0,0-0.1,0-0.1-0.1c-2.9-1.4-5.8-2.9-8.6-4.6l-17.8-10.6l-0.1-0.1
				L61.8,286.8c-2.8-1.6-4.7-4.2-5.5-7.2c2.4,18.8,11.3,36.4,25.3,49.5c0,0,11.9,9.5,19.2,14.4l88.2,50.8c6.9,4,15.4,4,22.3,0
				l59.5-34.4l3.5-2l88.5-51.2c3.4-2,6.2-4.8,8.1-8.2c1.9-3.3,3-7.2,3-11.1L373.9,220.6z"/>
			
				<linearGradient id="SVGID_00000098200599523455068130000016038866627859746749_" gradientUnits="userSpaceOnUse" x1="383.9906" y1="278.6837" x2="212.1456" y2="15.4862" gradientTransform="matrix(0.9998 1.808157e-02 -1.808157e-02 0.9998 3.649 -3.5838)">
				<stop  offset="0" style="stop-color:#393A3A"/>
				<stop  offset="0.2523" style="stop-color:#393A3A;stop-opacity:0.5205"/>
				<stop  offset="1" style="stop-color:#393A3A;stop-opacity:0"/>
			</linearGradient>
			<path style="fill:url(#SVGID_00000098200599523455068130000016038866627859746749_);" d="M373.8,112.4c0-8-4.3-15.3-11.2-19.3
				l-63.5-36.6l-0.1-0.1l-1-0.6L211,5.7c-6.9-4-15.4-4-22.3,0l-59.6,34.5c7.9-3.6,18.7-7.7,18.7-7.7c18.4-5.5,38.1-4.2,55.5,3.4
				c0.5,0.2,1,0.3,1.5,0.6c0.3,0.1,0.6,0.3,1,0.5l0.8,0.5c2.3,1.1,4.6,2.4,6.9,3.8l3.5,2.2l121.1,69.8c2.4,1.4,4.2,3.6,5.1,6.1
				c0.4,3.1,0.7,6.2,0.8,9.3c0,1.1,0,2.3,0,3.4l0,0.2l0.1,144.1c0,3-1.1,5.8-3.1,8c14.8-11.4,25.3-27.7,29.5-46.1
				c0,0,3.3-18.8,3.2-25.1C373.7,188.3,373.8,112.4,373.8,112.4z"/>
		</g>
	</g>
</g>
</svg>
