<?xml version="1.0" encoding="utf-8"?>
<!-- Generator: Adobe Illustrator 27.0.0, SVG Export Plug-In . SVG Version: 6.00 Build 0)  -->
<svg version="1.1" id="Ebene_1" xmlns="http://www.w3.org/2000/svg" xmlns:xlink="http://www.w3.org/1999/xlink" x="0px" y="0px"
	 viewBox="0 0 400 100" style="enable-background:new 0 0 400 100;" xml:space="preserve">
<style type="text/css">
	.st0{fill:#575756;}
	.st1{fill:#00B4D5;}
	.st2{fill:url(#SVGID_1_);}
</style>
<g>
	<path class="st0" d="M116.5,42.5l-4.6,6.9c-3.8-2.4-7.5-3.6-11.2-3.6c-2,0-3.5,0.4-4.6,1.1c-1.1,0.7-1.6,1.7-1.6,3
		c0,0.9,0.2,1.7,0.7,2.3c0.5,0.6,1.4,1.2,2.7,1.8c1.3,0.6,3.3,1.2,6,2c4.7,1.3,8.3,3,10.6,5.2c2.3,2.2,3.5,5.2,3.5,8.9
		c0,3-0.9,5.6-2.6,7.8c-1.7,2.2-4.1,3.9-7,5c-2.9,1.2-6.2,1.7-9.8,1.7c-3.8,0-7.2-0.6-10.3-1.7c-3.1-1.2-5.8-2.8-8-4.8l5.9-6.6
		C90,74.5,94,76,98.3,76c2.3,0,4.1-0.4,5.4-1.3c1.3-0.9,2-2.1,2-3.6c0-1.2-0.3-2.1-0.8-2.8c-0.5-0.7-1.4-1.3-2.8-1.9
		c-1.4-0.6-3.5-1.3-6.4-2.1c-4.5-1.2-7.9-3-10.1-5.3c-2.2-2.3-3.3-5.1-3.3-8.5c0-2.5,0.7-4.8,2.2-6.9c1.5-2,3.5-3.6,6.2-4.8
		c2.7-1.2,5.8-1.7,9.4-1.7C106.6,37.1,112,38.9,116.5,42.5z"/>
	<path class="st0" d="M163.7,64.5h-28.1c0.4,4.1,1.5,7,3.3,8.7c1.8,1.7,4.3,2.5,7.4,2.5c1.9,0,3.7-0.3,5.4-0.9
		c1.7-0.6,3.5-1.6,5.5-3l5,6.8c-5,4.1-10.7,6.1-17,6.1c-7.1,0-12.5-2.1-16.3-6.4c-3.8-4.2-5.7-10-5.7-17.2c0-4.6,0.8-8.7,2.4-12.3
		c1.6-3.6,4-6.5,7-8.6c3.1-2.1,6.7-3.1,11-3.1c6.4,0,11.4,2,14.9,6c3.6,4,5.3,9.6,5.3,16.8C163.9,60.4,163.8,62,163.7,64.5z
		 M152,56.5c0-7.5-2.7-11.2-8.1-11.2c-2.5,0-4.4,0.9-5.8,2.8c-1.4,1.8-2.2,4.8-2.5,8.9H152V56.5z"/>
	<path class="st0" d="M207,40.7c2.2,2.4,3.3,5.7,3.3,10v32.7h-12V52.7c0-2.4-0.4-4.1-1.2-5.1c-0.8-1-2.1-1.5-3.7-1.5
		c-1.7,0-3.2,0.5-4.6,1.6c-1.4,1-2.7,2.6-4,4.7v31h-12v-45h10.4l0.9,5.7c1.9-2.3,3.9-4.1,6.1-5.3c2.2-1.2,4.8-1.8,7.6-1.8
		C201.7,37.1,204.8,38.3,207,40.7z"/>
	<path class="st0" d="M248.6,38.4c2.4,0.9,4.7,2.2,6.8,4.1l-5.3,7.1c-1.5-1.1-2.9-2-4.3-2.5c-1.4-0.5-2.9-0.8-4.5-0.8
		c-6.4,0-9.6,4.9-9.6,14.8c0,5,0.8,8.5,2.5,10.7c1.6,2.1,4,3.2,7,3.2c1.6,0,3-0.2,4.3-0.7c1.3-0.5,2.8-1.3,4.6-2.4l5.3,7.5
		c-4.3,3.5-9.2,5.3-14.8,5.3c-4.4,0-8.2-1-11.5-2.9c-3.3-1.9-5.8-4.6-7.5-8.2c-1.8-3.5-2.6-7.7-2.6-12.4c0-4.7,0.9-8.9,2.6-12.6
		c1.8-3.6,4.3-6.5,7.5-8.5c3.3-2,7-3.1,11.3-3.1C243.5,37.1,246.2,37.5,248.6,38.4z"/>
	<path class="st0" d="M273.5,17.3c1.4,1.3,2.1,3,2.1,5c0,2-0.7,3.7-2.1,5c-1.4,1.3-3.2,2-5.3,2c-2.1,0-3.9-0.7-5.3-2
		c-1.4-1.3-2-3-2-5c0-2,0.7-3.7,2-5c1.4-1.3,3.1-2,5.3-2C270.4,15.3,272.1,15.9,273.5,17.3z M274.3,38.4v45h-12v-45H274.3z"/>
	<path class="st0" d="M323,83.4h-10.4l-0.6-6c-1.6,2.5-3.5,4.3-5.8,5.6c-2.3,1.2-4.9,1.8-7.9,1.8c-4.1,0-7.2-1.2-9.3-3.7
		c-2.1-2.5-3.2-5.9-3.2-10.3V38.4h12v30.8c0,2.4,0.4,4.1,1.2,5c0.8,1,2,1.5,3.7,1.5c3.2,0,6-2,8.2-5.9V38.4h12V83.4z"/>
	<path class="st0" d="M392.1,40.7c2.2,2.4,3.3,5.7,3.3,9.9v32.7h-12V52.7c0-4.4-1.5-6.6-4.4-6.6c-1.6,0-3,0.5-4.2,1.5
		c-1.2,1-2.4,2.6-3.6,4.7v31h-12V52.7c0-4.4-1.5-6.6-4.4-6.6c-1.6,0-3,0.5-4.2,1.6c-1.2,1-2.4,2.6-3.6,4.7v31h-12v-45h10.4l0.9,5.6
		c1.7-2.3,3.6-4,5.7-5.2c2.1-1.2,4.6-1.8,7.3-1.8c2.5,0,4.7,0.6,6.6,1.9c1.9,1.3,3.2,3.1,4.1,5.4c1.9-2.4,3.9-4.3,6.1-5.5
		c2.2-1.2,4.6-1.8,7.4-1.8C387.1,37.1,389.9,38.3,392.1,40.7z"/>
	<g>
		<path class="st1" d="M78.1,70.1c0,3-1,5.5-2.6,7.8c-3.3,4.9-7.3,6.7-13.9,6.7c-4.6,0-10.8,0-17.3,0c9.2,0,18.4-6.5,20.8-11.3
			c0,0,0,0,0-0.1c0.4-0.6,0.6-1.2,0.6-2c0-0.1,0-0.2,0-0.2c0-1.2-0.3-2.1-0.8-2.8c-0.5-0.7-1.4-1.3-2.8-1.9
			c-1.4-0.6-3.5-1.3-6.4-2.1c-4.5-1.2-7.9-3-10.1-5.3s-3.3-5.1-3.3-8.5c0-2.5,0.7-4.8,2.2-6.9c1.5-2,3.5-3.6,6.2-4.8
			c2.7-1.2,5.8-1.7,9.4-1.7c6.3,0,11.8,1.8,16.3,5.4L72,49.4c-3.8-2.4-7.5-3.6-11.2-3.6c-2,0-3.5,0.4-4.6,1.1
			c-1.1,0.7-1.6,1.7-1.6,3c0,0.9,0.2,1.7,0.7,2.3c0.5,0.6,1.4,1.2,2.7,1.8c1.3,0.6,3.3,1.2,6,2c4.7,1.3,8.3,3,10.6,5.2
			C76.9,63.4,78.1,66.4,78.1,70.1z"/>
		<path class="st1" d="M60.3,75.6c1,0,2-0.2,2.9-0.6c0.2-0.1,0.4-0.2,0.5-0.3c0.6-0.4,1-0.8,1.4-1.3c-2.4,4.8-11.6,11.3-20.8,11.3
			c-18.3,0-39.6,0-39.6,0V26h35l-1.4,9.1H17.1v15.3h18.5v9H17.1v16.2h25.6h11.7H60.3z"/>
		<linearGradient id="SVGID_1_" gradientUnits="userSpaceOnUse" x1="60.6435" y1="93.8448" x2="15.1893" y2="48.3906">
			<stop  offset="0" style="stop-color:#393A3A"/>
			<stop  offset="0.2523" style="stop-color:#393A3A;stop-opacity:0.5205"/>
			<stop  offset="1" style="stop-color:#393A3A;stop-opacity:0"/>
		</linearGradient>
		<path class="st2" d="M60.3,75.6c1,0,2-0.2,2.9-0.6c0.2-0.1,0.4-0.2,0.5-0.3c0.6-0.4,1-0.8,1.4-1.3c-2.4,4.8-11.6,11.3-20.8,11.3
			c-18.3,0-39.6,0-39.6,0V26h35l-1.4,9.1H17.1v15.3h18.5v9H17.1v16.2h25.6h11.7H60.3z"/>
	</g>
</g>
</svg>
