<?xml version="1.0" encoding="UTF-8"?>
<svg xmlns="http://www.w3.org/2000/svg" xmlns:xlink="http://www.w3.org/1999/xlink" viewBox="0 0 400 100">
  <defs>
    <style>
      .cls-1 {
        isolation: isolate;
      }

      .cls-2 {
        fill: #00b4d5;
      }

      .cls-3 {
        fill: url(#Unbenannter_Verlauf_3);
        mix-blend-mode: multiply;
      }

      .cls-4 {
        fill: #fff;
      }
    </style>
    <linearGradient id="Unbenannter_Verlauf_3" data-name="Unbenannter Verlauf 3" x1="60.64" y1="93.84" x2="15.19" y2="48.39" gradientUnits="userSpaceOnUse">
      <stop offset="0" stop-color="#393a3a"/>
      <stop offset=".25" stop-color="#393a3a" stop-opacity=".52"/>
      <stop offset=".55" stop-color="#393a3a" stop-opacity=".28"/>
      <stop offset="1" stop-color="#393a3a" stop-opacity="0"/>
    </linearGradient>
  </defs>
  <g class="cls-1">
    <g id="Ebene_1">
      <g>
        <path class="cls-4" d="M116.5,42.49l-4.58,6.87c-3.79-2.37-7.52-3.56-11.2-3.56-1.98,0-3.51.37-4.58,1.1-1.07.74-1.61,1.73-1.61,2.97,0,.9.24,1.67.72,2.29.48.62,1.38,1.22,2.71,1.78,1.33.57,3.32,1.24,5.98,2.04,4.75,1.3,8.28,3.04,10.6,5.22,2.32,2.18,3.48,5.16,3.48,8.95,0,3-.86,5.6-2.59,7.8-1.73,2.21-4.06,3.89-7,5.05-2.94,1.16-6.22,1.74-9.84,1.74s-7.24-.58-10.35-1.74c-3.11-1.16-5.77-2.76-7.97-4.79l5.94-6.62c3.79,2.94,7.8,4.41,12.04,4.41,2.26,0,4.06-.44,5.39-1.31,1.33-.88,1.99-2.08,1.99-3.6,0-1.19-.25-2.12-.76-2.8-.51-.68-1.44-1.31-2.8-1.91s-3.48-1.29-6.36-2.08c-4.52-1.24-7.87-3.01-10.05-5.3-2.18-2.29-3.27-5.13-3.27-8.52,0-2.54.73-4.83,2.21-6.87,1.47-2.04,3.55-3.63,6.23-4.79,2.68-1.16,5.81-1.74,9.37-1.74,6.33,0,11.76,1.81,16.28,5.43Z"/>
        <path class="cls-4" d="M163.66,64.55h-28.07c.39,4.07,1.5,6.95,3.31,8.65,1.81,1.7,4.27,2.54,7.38,2.54,1.92,0,3.73-.31,5.43-.93,1.7-.62,3.53-1.61,5.51-2.97l5,6.79c-5.03,4.07-10.72,6.11-17.05,6.11-7.07,0-12.5-2.12-16.28-6.36-3.79-4.24-5.68-9.98-5.68-17.22,0-4.58.81-8.69,2.42-12.34,1.61-3.65,3.96-6.52,7.04-8.61,3.08-2.09,6.74-3.14,10.98-3.14,6.39,0,11.36,2.01,14.93,6.02,3.56,4.02,5.34,9.61,5.34,16.79,0,.57-.08,2.12-.25,4.66ZM151.95,56.49c0-7.46-2.69-11.19-8.06-11.19-2.49,0-4.43.92-5.81,2.76-1.39,1.84-2.22,4.82-2.5,8.95h16.37v-.51Z"/>
        <path class="cls-4" d="M207,40.67c2.21,2.4,3.31,5.72,3.31,9.97v32.74h-12.04v-30.7c0-2.43-.41-4.14-1.23-5.13-.82-.99-2.05-1.48-3.69-1.48s-3.24.52-4.62,1.57c-1.39,1.05-2.73,2.62-4.03,4.71v31.04h-12.04v-44.95h10.43l.93,5.68c1.87-2.32,3.91-4.07,6.15-5.26,2.23-1.19,4.76-1.78,7.59-1.78,3.96,0,7.04,1.2,9.24,3.6Z"/>
        <path class="cls-4" d="M248.6,38.38c2.4.88,4.68,2.25,6.83,4.11l-5.26,7.12c-1.47-1.13-2.9-1.95-4.28-2.46-1.39-.51-2.9-.76-4.54-.76-6.39,0-9.58,4.92-9.58,14.76,0,4.98.82,8.54,2.46,10.69,1.64,2.15,3.99,3.22,7.04,3.22,1.58,0,3.02-.24,4.33-.72,1.3-.48,2.83-1.29,4.58-2.42l5.26,7.55c-4.3,3.51-9.22,5.26-14.76,5.26-4.41,0-8.24-.96-11.49-2.88-3.25-1.92-5.75-4.65-7.51-8.18-1.75-3.53-2.63-7.68-2.63-12.43s.88-8.95,2.63-12.59c1.75-3.65,4.25-6.49,7.51-8.52,3.25-2.04,7.02-3.05,11.32-3.05,3,0,5.7.44,8.1,1.31Z"/>
        <path class="cls-4" d="M273.53,17.26c1.38,1.33,2.08,3.01,2.08,5.05s-.69,3.72-2.08,5.05c-1.39,1.33-3.15,1.99-5.3,1.99s-3.9-.66-5.26-1.99c-1.36-1.33-2.04-3.01-2.04-5.05s.68-3.72,2.04-5.05c1.36-1.33,3.11-1.99,5.26-1.99s3.91.67,5.3,1.99ZM274.34,38.42v44.95h-12.04v-44.95h12.04Z"/>
        <path class="cls-4" d="M323.02,83.37h-10.43l-.59-6.02c-1.58,2.49-3.51,4.34-5.77,5.56-2.26,1.22-4.89,1.82-7.89,1.82-4.07,0-7.18-1.23-9.33-3.69-2.15-2.46-3.22-5.89-3.22-10.3v-32.31h12.04v30.79c0,2.37.39,4.06,1.19,5.05.79.99,2.04,1.48,3.73,1.48,3.22,0,5.96-1.95,8.23-5.85v-31.47h12.04v44.95Z"/>
        <path class="cls-4" d="M392.1,40.71c2.18,2.43,3.27,5.74,3.27,9.92v32.74h-12.04v-30.7c0-4.41-1.47-6.62-4.41-6.62-1.58,0-2.97.51-4.16,1.53-1.19,1.02-2.4,2.6-3.65,4.75v31.04h-12.04v-30.7c0-4.41-1.47-6.62-4.41-6.62-1.58,0-2.97.52-4.16,1.57-1.19,1.05-2.37,2.62-3.56,4.71v31.04h-12.04v-44.95h10.43l.93,5.6c1.7-2.26,3.6-3.99,5.72-5.17s4.57-1.78,7.34-1.78c2.54,0,4.75.64,6.62,1.91,1.87,1.27,3.22,3.07,4.07,5.39,1.87-2.43,3.89-4.25,6.06-5.47,2.18-1.21,4.65-1.82,7.42-1.82,3.56,0,6.43,1.22,8.61,3.65Z"/>
        <g>
          <path class="cls-2" d="M78.08,70.15c0,3-1.03,5.48-2.59,7.8-3.29,4.9-7.28,6.71-13.94,6.71h-17.3c9.24,0,18.38-6.47,20.81-11.32.01-.02.02-.04.03-.05.37-.58.56-1.24.59-1.99,0-.08,0-.15,0-.23,0-1.19-.25-2.12-.76-2.8s-1.44-1.32-2.8-1.91-3.48-1.29-6.36-2.08c-4.53-1.25-7.87-3.01-10.05-5.3s-3.26-5.13-3.26-8.52c0-2.54.73-4.83,2.21-6.87,1.47-2.04,3.54-3.63,6.23-4.79,2.69-1.16,5.81-1.74,9.37-1.74,6.33,0,11.76,1.81,16.28,5.43l-4.58,6.87c-3.79-2.37-7.52-3.56-11.2-3.56-1.98,0-3.51.37-4.58,1.1-1.08.73-1.61,1.72-1.61,2.97,0,.9.24,1.67.72,2.29.48.62,1.38,1.21,2.71,1.78,1.33.56,3.32,1.24,5.98,2.04,4.75,1.3,8.28,3.04,10.6,5.21,2.32,2.18,3.48,5.16,3.48,8.95Z"/>
          <path class="cls-2" d="M60.27,75.57c1.01,0,2.02-.2,2.94-.62.19-.09.37-.18.5-.27.58-.38,1.04-.83,1.36-1.33-2.43,4.85-11.57,11.32-20.81,11.32H4.64V26.04h35.03l-1.36,9.07h-21.2v15.27h18.49v8.99h-18.49v16.2h43.17Z"/>
          <path class="cls-3" d="M60.27,75.57c1.01,0,2.02-.2,2.94-.62.19-.09.37-.18.5-.27.58-.38,1.04-.83,1.36-1.33-2.43,4.85-11.57,11.32-20.81,11.32H4.64V26.04h35.03l-1.36,9.07h-21.2v15.27h18.49v8.99h-18.49v16.2h43.17Z"/>
        </g>
      </g>
    </g>
  </g>
</svg>